<svg width="0" height="0" class="hidden">
  <symbol fill="none" xmlns="http://www.w3.org/2000/svg" viewBox="0 0 34 31" id="VectorA">
    <path d="M0.704102 31.5766H2.49079L6.77507 22.4436H19.2945L23.7486 31.5766H32.1284L15.9161 0.00634766L0.704102 31.5766ZM7.53001 20.8319L12.9089 9.61962L18.4703 20.8319H7.53001Z" fill="black"></path>
  </symbol>

  <symbol fill="none" xmlns="http://www.w3.org/2000/svg" viewBox="0 0 31 33" id="VectorG">
    <path d="M23.1452 22.905C23.1452 27.5252 20.5784 30.3946 16.4451 30.3946C11.4373 30.3946 8.44902 25.0918 8.44902 16.2181C8.44902 11.8633 9.34237 8.19751 11.0284 5.63144C12.7018 3.08434 15.0988 1.7381 17.9613 1.7381C22.5286 1.7381 26.3159 4.33577 27.8447 8.50721L27.9264 8.74106H29.6188L29.4552 8.27336C27.593 2.93897 23.1074 0 16.8351 0C7.23483 0 0 6.93344 0 16.1296C0 20.6423 1.69232 24.7253 4.75611 27.6326C7.73183 30.4515 11.7896 32 16.1871 32C18.6847 32 21.1383 31.2226 23.1577 29.7942V31.5702H30.7386V16.2939H23.1577L23.1452 22.905Z" fill="black"></path>
  </symbol>

  <symbol fill="none" xmlns="http://www.w3.org/2000/svg" viewBox="0 0 9 32" id="VectorI">
    <path d="M8.45749 0.42981H0.788574V31.5766H8.45749V0.42981Z" fill="black"></path>
  </symbol>

   <symbol fill="none" xmlns="http://www.w3.org/2000/svg" viewBox="0 0 28 33" id="VectorL">
    <path d="M8.65476 0.42981H0.98584V31.5766H24.2254V29.9522H8.65476V0.42981Z" fill="black"></path>
  </symbol>

  <symbol fill="none" xmlns="http://www.w3.org/2000/svg" viewBox="0 0 33 32" id="VectorM">
    <path d="M18.3227 21.3123L8.99288 0.42981H0.915039V31.5702H2.53186V4.31051L14.8751 32H15.7999L26.6144 4.62653V31.5702H34.1953V0.42981H26.583L18.3227 21.3123Z" fill="black"></path>
  </symbol>

  <symbol fill="none" xmlns="http://www.w3.org/2000/svg" viewBox="0 0 32 33" id="VectorR">
    <path d="M26.1209 25.8503L24.7368 21.8622C23.8812 19.3277 22.1826 17.6907 19.5529 16.8944C20.9118 16.5531 22.1385 16.0411 23.1703 15.3838C25.5735 13.8543 26.8443 11.6042 26.8443 8.88014C26.8443 6.05493 25.605 3.87441 23.164 2.39544C21.0439 1.10609 18.0304 0.42981 14.4633 0.42981H0.050293V31.5766H7.71921V17.5959H11.085C14.5577 17.5959 15.9103 18.7083 17.1182 22.5637L18.5526 26.9564C19.0685 28.5301 19.5088 29.8827 20.4777 31.3174L20.6475 31.5702H29.3797L28.5618 30.6285C27.291 29.1685 26.794 27.8475 26.1209 25.8503ZM18.9552 9.10135C18.9552 13.6078 16.5646 15.9905 12.0412 15.9905H7.71921V2.03518H12.2111C16.6212 2.03518 18.9552 4.48116 18.9552 9.10135Z" fill="black"></path>
  </symbol>

  <symbol fill="none" xmlns="http://www.w3.org/2000/svg" viewBox="0 0 5 8" id="arrow">
    <path d="M4 1L1 4L4 7" stroke="#2D2D2D" stroke-linecap="square"></path>
  </symbol>

  <symbol fill="none" xmlns="http://www.w3.org/2000/svg" viewBox="0 0 20 18" id="bordr">
    <path d="M17.5268 9.27323L17.5169 9.28197L17.5075 9.29122L9.98294 16.698L2.52079 9.33589L2.12607 8.93171C1.36603 8.1005 0.899902 6.98363 0.899902 5.75276C0.899902 3.17305 2.94455 1.09998 5.44454 1.09998C7.23261 1.09998 8.78598 2.15826 9.52789 3.70769L9.66391 3.99176H9.97886H10.0209H10.3359L10.4719 3.70769C11.2138 2.15826 12.7672 1.09998 14.5553 1.09998C17.0553 1.09998 19.0999 3.17305 19.0999 5.75276C19.0999 7.16109 18.4895 8.42064 17.5268 9.27323Z" stroke="#374454"></path>
  </symbol>

  <symbol fill="none" xmlns="http://www.w3.org/2000/svg" viewBox="0 0 15 15" id="Ellipse 1">
    <path d="M14.5001 7.47557C14.5001 11.1759 11.5004 14.1756 7.8001 14.1756C4.09979 14.1756 1.1001 11.1759 1.1001 7.47557C1.1001 3.77527 4.09979 0.775574 7.8001 0.775574C11.5004 0.775574 14.5001 3.77527 14.5001 7.47557Z" stroke="#374454"></path>
  </symbol>

  <symbol fill="none" xmlns="http://www.w3.org/2000/svg" viewBox="0 0 18 9" id="Ellipse 2">
    <path d="M16.8845 8.10001H1.11566C1.37361 3.96992 4.80499 0.700012 9.0001 0.700012C13.1952 0.700012 16.6266 3.96992 16.8845 8.10001Z" stroke="#374454"></path>
  </symbol>

  <symbol fill="none" xmlns="http://www.w3.org/2000/svg" viewBox="0 0 56 57" id="icon">
    <rect opacity="0.3" y="0.491699" width="56" height="56" rx="2" fill="#E4CFCF"></rect>
  </symbol>

  <symbol fill="none" xmlns="http://www.w3.org/2000/svg" viewBox="0 0 8 8" id="Rectangle 50">
    <path d="M7 7.6V4C7 2.34315 5.65685 1 4 1V1C2.34315 1 1 2.34314 1 4V7.6" stroke="#374454"></path>
  </symbol>

  <symbol fill="none" xmlns="http://www.w3.org/2000/svg" viewBox="0 0 16 15" id="Rectangle 248">
    <rect x="1.3999" y="0.799988" width="13.2" height="13.2" stroke="#2D2D2D"></rect>
  </symbol>

   <symbol fill="none" xmlns="http://www.w3.org/2000/svg" viewBox="0 0 30 29" id="Vector">
    <path d="M9.40518 24.5117L9.25947 24.1772L8.8964 24.2139L5.36402 24.5716C4.96601 24.6009 4.57525 24.4111 4.38072 24.0735L4.3796 24.0716L1.23359 18.6689C1.23342 18.6686 1.23326 18.6683 1.23309 18.668C1.03424 18.3222 1.06167 17.8945 1.29366 17.5723L3.44455 14.6941L3.66485 14.3993L3.44885 14.1013L1.37261 11.2372C1.37235 11.2368 1.37209 11.2364 1.37183 11.2361C1.15802 10.9364 1.13494 10.5094 1.33581 10.1709L1.33788 10.1673L4.485 4.76268L4.48501 4.76269L4.48612 4.76075C4.68527 4.41521 5.07551 4.22594 5.46555 4.27552L5.46555 4.27555L5.47067 4.27614L9.05448 4.69418L9.41721 4.73649L9.56787 4.40384L11.0285 1.17896L11.0293 1.17719C11.1879 0.823284 11.5489 0.591797 11.9433 0.591797H18.2376C18.6402 0.591797 19.0039 0.831732 19.1655 1.1896L20.5947 4.48602L20.7401 4.82142L21.1038 4.78459L24.6357 4.42695C25.0471 4.39754 25.4241 4.58595 25.6195 4.92498L25.6206 4.92691L28.7666 10.3296C28.7667 10.3299 28.7668 10.3301 28.767 10.3303C28.9659 10.676 28.9386 11.1035 28.7069 11.4257L26.5564 14.2885L26.3348 14.5836L26.5513 14.8823L28.6293 17.7489C28.8592 18.0659 28.8784 18.4774 28.6794 18.8127L28.6774 18.8162L25.5302 24.2209L25.5291 24.2228C25.3292 24.5698 24.9527 24.758 24.5481 24.7079L24.5446 24.7074L20.9608 24.2894L20.598 24.2471L20.4474 24.5798L18.9889 27.7999C18.8142 28.1629 18.4477 28.3918 18.0569 28.3918H11.7626C11.3599 28.3918 10.9961 28.1517 10.8345 27.7937C10.8342 27.793 10.8339 27.7922 10.8335 27.7915L9.40518 24.5117Z" stroke="#2D2D2D"></path>
  </symbol>

  <symbol fill="none" xmlns="http://www.w3.org/2000/svg" viewBox="0 0 4 5" id="Vector 3">
    <path d="M0.800049 1.27557L3.20005 3.67558" stroke="#374454" stroke-linecap="square"></path>
  </symbol>

  <symbol fill="none" xmlns="http://www.w3.org/2000/svg" viewBox="0 0 22 13" id="Vector 7">
    <path d="M15.8889 4.37631L12.7778 0.991699H4.33339L1.22228 4.37631L7.88894 11.9917L11.7778 8.18401M18.5556 4.37631H12.7778L10.5556 6.91478L15.4445 11.9917L20.7778 6.91478L18.5556 4.37631Z" stroke="#637284"></path>
  </symbol>

  <symbol fill="none" xmlns="http://www.w3.org/2000/svg" viewBox="0 0 10 15" id="Vector 11">
    <path d="M1.32102 0.500008L8.39209 7.57108L1.32102 14.6421" stroke="#637284"></path>
  </symbol>

  <symbol fill="none" xmlns="http://www.w3.org/2000/svg" viewBox="0 0 33 33" id="Vector 14">
    <path d="M1 0V30C1 31.1046 1.89543 32 3 32H33" stroke="#3E62A5" stroke-width="2"></path>
  </symbol>

  <symbol fill="none" xmlns="http://www.w3.org/2000/svg" viewBox="0 0 63 63" id="Vector 15">
    <path d="M62 63L62 3C62 1.89543 61.1046 1 60 1L6.43349e-06 0.999996" stroke="#3E62A5" stroke-width="2"></path>
  </symbol>
</svg>
